<?xml version="1.0" encoding="UTF-8"?>
<svg width="58px" height="51px" viewBox="0 0 58 51" version="1.1" xmlns="http://www.w3.org/2000/svg" xmlns:xlink="http://www.w3.org/1999/xlink">
    <!-- Generator: Sketch 42 (36781) - http://www.bohemiancoding.com/sketch -->
    <title>Group 3</title>
    <desc>Created with Sketch.</desc>
    <defs></defs>
    <g id="-Symbols" stroke="none" stroke-width="1" fill="none" fill-rule="evenodd" fill-opacity="0.35">
        <g id="listitem/noimage-hover" transform="translate(-145.000000, -41.000000)" fill-rule="nonzero" fill="#4B535D">
            <g id="Group-3" transform="translate(145.000000, 41.000000)">
                <path d="M0.533447368,0.142343284 L0.533447368,50.6041791 L57.5161579,50.6041791 L57.5161579,0.142343284 L0.533447368,0.142343284 Z M56.7522368,49.8429851 L1.29660526,49.8429851 L1.29660526,0.903537313 L56.753,0.903537313 L56.753,49.8429851 L56.7522368,49.8429851 Z" id="Shape"></path>
                <path d="M53.3233684,3.88513433 L4.23476316,3.88513433 L4.23476316,41.6297015 L53.3233684,41.6297015 L53.3233684,3.88513433 L53.3233684,3.88513433 Z M52.5602105,4.64632836 L52.5602105,32.5113582 L38.3494474,15.3144627 L37.7526579,15.323597 L24.6767105,32.2099254 L17.9914474,24.5675373 L17.4045789,24.5812388 L4.99792105,40.1583134 L4.99792105,4.64632836 L52.5602105,4.64632836 Z M17.7182368,25.4124627 L31.2375789,40.8685075 L5.40697368,40.8685075 L17.7182368,25.4124627 Z M32.2510526,40.8677463 L25.1643684,32.7663582 L25.1926053,32.7884328 L38.0647895,16.1662388 L52.5602105,33.7079552 L52.5602105,40.8677463 L32.2510526,40.8677463 L32.2510526,40.8677463 Z" id="Shape"></path>
                <path d="M14.0741579,16.6983134 C16.6688947,16.6983134 18.7805526,14.5928507 18.7805526,12.0040299 C18.7805526,9.41520896 16.6696579,7.30974627 14.0741579,7.30974627 C11.4786579,7.30974627 9.36776316,9.41597015 9.36776316,12.0040299 C9.36776316,14.5920896 11.4794211,16.6983134 14.0741579,16.6983134 Z M14.0741579,8.0709403 C16.2483947,8.0709403 18.0173947,9.83538806 18.0173947,12.0040299 C18.0173947,14.1726716 16.2483947,15.9371194 14.0741579,15.9371194 C11.8999211,15.9371194 10.1309211,14.1726716 10.1309211,12.0040299 C10.1309211,9.83538806 11.8999211,8.0709403 14.0741579,8.0709403 Z" id="Shape"></path>
            </g>
        </g>
    </g>
</svg>