<?xml version="1.0" encoding="UTF-8"?>
<svg width="77px" height="63px" viewBox="0 0 77 63" version="1.1" xmlns="http://www.w3.org/2000/svg" xmlns:xlink="http://www.w3.org/1999/xlink">
    <!-- Generator: Sketch 43.2 (39069) - http://www.bohemiancoding.com/sketch -->
    <title>fallback-book</title>
    <desc>Created with Sketch.</desc>
    <defs></defs>
    <g id="-Symbols" stroke="none" stroke-width="1" fill="none" fill-rule="evenodd">
        <g id="listitem/noimage-hover-copy" transform="translate(-136.000000, -47.000000)">
            <g id="fallback-book" transform="translate(118.000000, 46.000000)">
                <g id="Group-3" transform="translate(0.000000, 53.000000)" font-size="10" font-family="MyriadPro-Regular, Myriad Pro" fill-opacity="0.35" fill="#4B535E" font-weight="normal">
                    <text id="zonder-afbeelding">
                        <tspan x="18.7182813" y="8">zonder afbeelding</tspan>
                    </text>
                </g>
                <g transform="translate(25.000000, 0.000000)" id="Shape" fill-rule="nonzero" fill="#000000" opacity="0.300000012">
                    <path d="M4.7,38.9 C12.8,38.5 20.9,38.3 29.9,41.6 L30,41.6 L30.1,41.6 C39.1,38.4 47.1,38.5 55.3,38.9 C55.4,38.9 55.5,38.9 55.5,38.8 C55.6,38.7 55.6,38.7 55.6,38.6 L55.6,1.5 C55.6,1.3 55.5,1.2 55.3,1.2 C47.1,0.8 39.1,0.6 30,3.9 C20.9,0.7 12.9,0.8 4.7,1.2 C4.5,1.2 4.4,1.3 4.4,1.5 L4.4,38.6 C4.4,38.7 4.4,38.8 4.5,38.8 C4.6,38.9 4.6,38.9 4.7,38.9 Z M30.3,4.4 C39.1,1.3 47,1.4 55,1.8 L55,38.3 C47,37.9 39.1,37.8 30.3,40.9 L30.3,4.4 Z M5,1.8 C13,1.4 20.9,1.3 29.7,4.4 L29.7,40.9 C23.4,38.7 17.6,38.1 11.9,38.1 C9.6,38.1 7.3,38.2 5,38.3 L5,1.8 Z M60,7.2 L60,44.7 C60,44.9 59.9,45 59.7,45 L0.3,45 C0.1,45 0,44.9 0,44.7 L0,7.2 C0,7 0.1,6.9 0.3,6.9 C0.5,6.9 0.6,7 0.6,7.2 L0.6,44.4 L59.4,44.4 L59.4,7.2 C59.4,7 59.5,6.9 59.7,6.9 C59.9,6.9 60,7.1 60,7.2 Z"></path>
                </g>
            </g>
        </g>
    </g>
</svg>