<?xml version="1.0" encoding="UTF-8"?>
<svg width="77px" height="69px" viewBox="0 0 77 69" version="1.1" xmlns="http://www.w3.org/2000/svg" xmlns:xlink="http://www.w3.org/1999/xlink">
    <!-- Generator: Sketch 43.2 (39069) - http://www.bohemiancoding.com/sketch -->
    <title>fallback-image</title>
    <desc>Created with Sketch.</desc>
    <defs></defs>
    <g id="-Symbols" stroke="none" stroke-width="1" fill="none" fill-rule="evenodd" fill-opacity="0.35">
        <g id="listitem/noimage" transform="translate(-136.000000, -41.000000)">
            <g id="fallback-image" transform="translate(118.000000, 41.000000)">
                <text id="zonder-afbeelding" font-family="MyriadPro-Regular, Myriad Pro" font-size="10" font-weight="normal" fill="#4B535E">
                    <tspan x="18.7182813" y="66">zonder afbeelding</tspan>
                </text>
                <path d="M27.5334474,0.142343284 L27.5334474,50.6041791 L84.5161579,50.6041791 L84.5161579,0.142343284 L27.5334474,0.142343284 Z M83.7522368,49.8429851 L28.2966053,49.8429851 L28.2966053,0.903537313 L83.753,0.903537313 L83.753,49.8429851 L83.7522368,49.8429851 Z" id="Shape" fill="#4B535D" fill-rule="nonzero"></path>
                <path d="M80.3233684,3.88513433 L31.2347632,3.88513433 L31.2347632,41.6297015 L80.3233684,41.6297015 L80.3233684,3.88513433 L80.3233684,3.88513433 Z M79.5602105,4.64632836 L79.5602105,32.5113582 L65.3494474,15.3144627 L64.7526579,15.323597 L51.6767105,32.2099254 L44.9914474,24.5675373 L44.4045789,24.5812388 L31.9979211,40.1583134 L31.9979211,4.64632836 L79.5602105,4.64632836 Z M44.7182368,25.4124627 L58.2375789,40.8685075 L32.4069737,40.8685075 L44.7182368,25.4124627 Z M59.2510526,40.8677463 L52.1643684,32.7663582 L52.1926053,32.7884328 L65.0647895,16.1662388 L79.5602105,33.7079552 L79.5602105,40.8677463 L59.2510526,40.8677463 L59.2510526,40.8677463 Z" id="Shape" fill="#4B535D" fill-rule="nonzero"></path>
                <path d="M41.0741579,16.6983134 C43.6688947,16.6983134 45.7805526,14.5928507 45.7805526,12.0040299 C45.7805526,9.41520896 43.6696579,7.30974627 41.0741579,7.30974627 C38.4786579,7.30974627 36.3677632,9.41597015 36.3677632,12.0040299 C36.3677632,14.5920896 38.4794211,16.6983134 41.0741579,16.6983134 Z M41.0741579,8.0709403 C43.2483947,8.0709403 45.0173947,9.83538806 45.0173947,12.0040299 C45.0173947,14.1726716 43.2483947,15.9371194 41.0741579,15.9371194 C38.8999211,15.9371194 37.1309211,14.1726716 37.1309211,12.0040299 C37.1309211,9.83538806 38.8999211,8.0709403 41.0741579,8.0709403 Z" id="Shape" fill="#4B535D" fill-rule="nonzero"></path>
            </g>
        </g>
    </g>
</svg>