<?xml version="1.0" encoding="UTF-8" standalone="no"?>
<svg width="12px" height="15px" viewBox="0 0 12 15" version="1.1" xmlns="http://www.w3.org/2000/svg" xmlns:xlink="http://www.w3.org/1999/xlink" xmlns:sketch="http://www.bohemiancoding.com/sketch/ns">
    <!-- Generator: Sketch 3.3.3 (12072) - http://www.bohemiancoding.com/sketch -->
    <title>Imported Layers Copy 2</title>
    <desc>Created with Sketch.</desc>
    <defs></defs>
    <g id="Style-guides" stroke="none" stroke-width="1" fill="none" fill-rule="evenodd" sketch:type="MSPage">
        <path d="M9.34194915,3.60112133 C9.32889831,3.59292267 9.31584746,3.584724 9.30335593,3.577288 L6.46013559,1.89923067 L6.46013559,0.771628 C6.46013559,0.558653333 6.37567797,0.365698667 6.23957627,0.225749333 C6.10254237,0.086372 5.91330508,0 5.70561017,0 C5.28835593,0 4.95127119,0.345297333 4.95127119,0.771628 L4.95127119,10.4992507 C4.81274576,10.4456733 4.66862712,10.399532 4.51705085,10.3615893 C4.45384746,10.345192 4.38971186,10.33032 4.32408475,10.3175453 C4.05691525,10.263968 3.77352542,10.2349867 3.48081356,10.2349867 C1.83491525,10.2349867 0.5,11.144276 0.5,12.2674933 C0.5,13.389948 1.83491525,14.3 3.48081356,14.3 C5.12671186,14.3 6.46162712,13.389948 6.46162712,12.2674933 C6.46162712,12.258532 6.46088136,11.9814933 6.46088136,11.9814933 C6.46013559,11.9807307 6.46013559,4.97068 6.46013559,4.97068 L8.00349153,5.88168533 C8.01579661,5.88912133 8.02884746,5.89655733 8.04208475,5.90399333 C8.08272881,5.929352 8.12430508,5.95242267 8.16588136,5.97701867 C9.22411864,6.60183333 9.74466102,7.81504533 9.55971186,8.98001867 C9.53789831,9.255532 9.65666102,9.54000667 9.90350847,9.68605733 C10.2042373,9.86318667 10.5851356,9.76937867 10.7760508,9.479756 C10.7840678,9.46698133 10.7920847,9.45363467 10.7993559,9.44105067 C10.8109153,9.42084 10.8189322,9.40749333 10.8262034,9.393384 C11.4679322,8.25300667 11.5385932,6.93931333 11.1284237,5.79531333 C10.8094237,4.906044 10.1999492,4.119544 9.34194915,3.60112133 Z" id="Imported-Layers-Copy-2" fill="#000000" sketch:type="MSShapeGroup"></path>
    </g>
</svg>