<?xml version="1.0" encoding="utf-8"?>
<!-- Generator: Adobe Illustrator 16.0.0, SVG Export Plug-In . SVG Version: 6.00 Build 0)  -->
<!DOCTYPE svg PUBLIC "-//W3C//DTD SVG 1.1//EN" "http://www.w3.org/Graphics/SVG/1.1/DTD/svg11.dtd">
<svg version="1.1" id="Layer_1" xmlns="http://www.w3.org/2000/svg" xmlns:xlink="http://www.w3.org/1999/xlink" x="0px" y="0px"
	 width="17.517px" height="18px" viewBox="0 0 17.517 18" enable-background="new 0 0 17.517 18" xml:space="preserve">
<g>
	<path fill-rule="evenodd" clip-rule="evenodd" fill="#054163" d="M16.735,3.119L9.847,0.108C9.19-0.179,8.417,0.124,8.129,0.781
		L7.691,1.785l6.19,1.508c0.696,0.169,1.129,0.879,0.959,1.576l-2.323,9.54c-0.016,0.066-0.042,0.128-0.066,0.189
		c0.437-0.059,0.836-0.332,1.025-0.764l3.932-8.998C17.694,4.18,17.393,3.406,16.735,3.119"/>
	<path fill-rule="evenodd" clip-rule="evenodd" fill="#054163" d="M13.534,5.513c0.17-0.697-0.262-1.407-0.959-1.576L5.272,2.158
		C4.574,1.988,3.865,2.42,3.695,3.117l-0.37,1.52H9.94c0.717,0.001,1.304,0.588,1.304,1.305v8.976L13.534,5.513z"/>
	<path fill-rule="evenodd" clip-rule="evenodd" fill="#054163" d="M8.823,5.572L1.306,5.571c-0.718,0-1.305,0.587-1.305,1.305
		L0,16.694c0,0.718,0.587,1.305,1.305,1.305L8.822,18c0.718,0,1.306-0.587,1.306-1.306V6.877C10.128,6.159,9.541,5.572,8.823,5.572"
		/>
</g>
</svg>
