<?xml version="1.0" encoding="utf-8"?>
<!-- Generator: Adobe Illustrator 16.0.0, SVG Export Plug-In . SVG Version: 6.00 Build 0)  -->
<!DOCTYPE svg PUBLIC "-//W3C//DTD SVG 1.1//EN" "http://www.w3.org/Graphics/SVG/1.1/DTD/svg11.dtd">
<svg version="1.1" id="Layer_1" xmlns="http://www.w3.org/2000/svg" xmlns:xlink="http://www.w3.org/1999/xlink" x="0px" y="0px"
	 width="32px" height="21px" viewBox="0 0 32 21" enable-background="new 0 0 32 21" xml:space="preserve">
<g transform="translate(2, 0)">
	<path fill="#9B9B9B" d="M27.633,3H7.481c-0.829,0-1.5-0.671-1.5-1.5S6.652,0,7.481,0h20.152c0.828,0,1.5,0.671,1.5,1.5
		S28.461,3,27.633,3z"/>
	<path fill="#9B9B9B" d="M1.29,3h-1.27c-0.829,0-1.5-0.671-1.5-1.5S-0.808,0,0.021,0h1.27c0.829,0,1.5,0.671,1.5,1.5S2.119,3,1.29,3
		z"/>
	<path fill="#9B9B9B" d="M27.633,12H7.481c-0.829,0-1.5-0.672-1.5-1.5c0-0.829,0.671-1.5,1.5-1.5h20.152c0.828,0,1.5,0.671,1.5,1.5
		C29.133,11.328,28.461,12,27.633,12z"/>
	<path fill="#9B9B9B" d="M1.29,12h-1.27c-0.829,0-1.5-0.672-1.5-1.5c0-0.829,0.671-1.5,1.5-1.5h1.27c0.829,0,1.5,0.671,1.5,1.5
		C2.79,11.328,2.119,12,1.29,12z"/>
	<path fill="#9B9B9B" d="M27.633,21H7.481c-0.829,0-1.5-0.672-1.5-1.5s0.671-1.5,1.5-1.5h20.152c0.828,0,1.5,0.672,1.5,1.5
		S28.461,21,27.633,21z"/>
	<path fill="#9B9B9B" d="M1.29,21h-1.27c-0.829,0-1.5-0.672-1.5-1.5s0.671-1.5,1.5-1.5h1.27c0.829,0,1.5,0.672,1.5,1.5
		S2.119,21,1.29,21z"/>
</g>
</svg>
