<?xml version="1.0" encoding="utf-8"?>
<!-- Generator: Adobe Illustrator 16.0.0, SVG Export Plug-In . SVG Version: 6.00 Build 0)  -->
<!DOCTYPE svg PUBLIC "-//W3C//DTD SVG 1.1//EN" "http://www.w3.org/Graphics/SVG/1.1/DTD/svg11.dtd">
<svg version="1.1" id="Layer_1" xmlns="http://www.w3.org/2000/svg" xmlns:xlink="http://www.w3.org/1999/xlink" x="0px" y="0px"
	 width="19.961px" height="17.709px" viewBox="0 0 19.961 17.709" enable-background="new 0 0 19.961 17.709" xml:space="preserve">
<path fill-rule="evenodd" clip-rule="evenodd" fill="#054163" d="M11.797,15.85c0,0.279-0.178,0.459-0.3,0.459H8.998H6.6H1.701
	c-0.082,0-0.161-0.094-0.183-0.12c-0.013-0.017-0.023-0.031-0.036-0.052l-0.01-0.02c-0.01-0.016-0.019-0.031-0.027-0.053
	l-0.013-0.049l-0.021-0.064L1.41,15.948C1.404,15.917,1.4,15.883,1.4,15.85v-1.42v-1.969V9.838V7.871v-3.28V1.859
	C1.4,1.579,1.578,1.4,1.701,1.4h9.796c0.122,0,0.3,0.179,0.3,0.459v4.435h1.4V1.859c0-1.022-0.765-1.859-1.7-1.859H1.701
	C0.767,0,0,0.837,0,1.859v2.732v3.28v1.967v2.624v1.969v1.42c0,0.12,0.013,0.236,0.033,0.349c0.013,0.074,0.035,0.142,0.056,0.212
	c0.011,0.035,0.018,0.07,0.029,0.104c0.033,0.093,0.074,0.18,0.12,0.265c0.003,0.007,0.005,0.013,0.008,0.019
	c0.05,0.091,0.108,0.176,0.171,0.256c0.312,0.398,0.771,0.656,1.284,0.656H6.6h2.398h2.499c0.936,0,1.7-0.836,1.7-1.859v-3.635h-1.4
	V15.85z"/>
<path fill-rule="evenodd" clip-rule="evenodd" fill="#054163" d="M19.841,8.96l-2.072-2.079l-2.174-2.177
	c-0.08-0.084-0.192-0.138-0.317-0.138c-0.241,0-0.436,0.195-0.436,0.436v2.292h-3.425c-0.731,0-0.982,0.164-0.982,0.895v1.065v1.066
	c0,0.731,0.251,0.896,0.982,0.896h3.425v2.291c0,0.241,0.194,0.436,0.436,0.436c0.178,0,0.315-0.137,0.315-0.137l2.176-2.178
	l2.072-2.08c0.072-0.076,0.117-0.18,0.12-0.294C19.958,9.14,19.913,9.037,19.841,8.96"/>
</svg>
