<?xml version="1.0" encoding="utf-8"?>
<!-- Generator: Adobe Illustrator 16.0.0, SVG Export Plug-In . SVG Version: 6.00 Build 0)  -->
<!DOCTYPE svg PUBLIC "-//W3C//DTD SVG 1.1//EN" "http://www.w3.org/Graphics/SVG/1.1/DTD/svg11.dtd">
<svg version="1.1" id="Layer_1" xmlns="http://www.w3.org/2000/svg" xmlns:xlink="http://www.w3.org/1999/xlink" x="0px" y="0px"
	 width="12.903px" height="20px" viewBox="0 0 12.903 20" enable-background="new 0 0 12.903 20" xml:space="preserve">
<path fill="#054163" d="M4.043,0.452C0.744,1.764-0.861,5.546,0.466,8.884c0.549,1.381,1.516,2.473,2.695,3.186l-2.977,6.791
	c-0.091,0.207-0.088,0.433-0.011,0.627c0.076,0.19,0.225,0.354,0.43,0.444c0.206,0.09,0.432,0.088,0.626,0.011
	c0.192-0.077,0.355-0.226,0.444-0.431l2.972-6.781c1.341,0.406,2.817,0.38,4.21-0.174c3.303-1.313,4.909-5.096,3.582-8.433
	C11.11,0.786,7.345-0.861,4.043,0.452 M8.255,11.045c-2.466,0.981-5.283-0.258-6.279-2.763C0.98,5.779,2.177,2.944,4.644,1.963
	c2.468-0.981,5.287,0.257,6.283,2.761C11.922,7.228,10.723,10.065,8.255,11.045"/>
</svg>
