<?xml version="1.0" encoding="utf-8"?>
<!-- Generated by IcoMoon.io -->
<!DOCTYPE svg PUBLIC "-//W3C//DTD SVG 1.1//EN" "http://www.w3.org/Graphics/SVG/1.1/DTD/svg11.dtd">
<svg version="1.1" xmlns="http://www.w3.org/2000/svg" xmlns:xlink="http://www.w3.org/1999/xlink" width="20" height="20" viewBox="0 0 20 20">
<path fill="#444444" d="M9.987 0.4c-2.659 0-4.91 0.928-6.752 2.784-1.891 1.92-2.835 4.192-2.835 6.816s0.945 4.88 2.835 6.768c1.89 1.888 4.141 2.832 6.752 2.832 2.643 0 4.934-0.952 6.873-2.856 1.826-1.808 2.74-4.056 2.74-6.744s-0.929-4.96-2.788-6.816c-1.859-1.856-4.133-2.784-6.825-2.784zM10.012 2.128c2.179 0 4.029 0.768 5.551 2.304 1.538 1.52 2.307 3.376 2.307 5.568 0 2.208-0.753 4.040-2.259 5.496-1.586 1.568-3.452 2.352-5.599 2.352s-3.997-0.776-5.551-2.328c-1.554-1.552-2.331-3.392-2.331-5.52s0.785-3.984 2.355-5.568c1.506-1.536 3.348-2.304 5.527-2.304z"></path>
<path fill="#444444" d="M6.82 8.279h1.081c0.604 0 0.857 0.291 0.857 0.82 0 0.41-0.216 0.805-0.82 0.805h-1.118v-1.625zM5.493 12.601h1.342v-1.714h1.036c1.818 0 2.213-1.088 2.213-1.796 0-1.051-0.529-1.796-1.96-1.796h-2.631v5.306z"></path>
<path fill="#444444" d="M10.445 12.601h2.057c1.617 0 2.705-0.768 2.705-2.653s-1.088-2.653-2.705-2.653h-2.057v5.306zM11.771 8.413h0.753c0.999 0 1.356 0.678 1.356 1.535s-0.358 1.535-1.349 1.535h-0.761v-3.070z"></path>
</svg>
