<?xml version="1.0" encoding="utf-8"?>
<!-- Generated by IcoMoon.io -->
<!DOCTYPE svg PUBLIC "-//W3C//DTD SVG 1.1//EN" "http://www.w3.org/Graphics/SVG/1.1/DTD/svg11.dtd">
<svg version="1.1" xmlns="http://www.w3.org/2000/svg" xmlns:xlink="http://www.w3.org/1999/xlink" width="20" height="20" viewBox="0 0 20 20">
<path fill="#444444" d="M9.988 0.4c-2.659 0-4.91 0.928-6.752 2.784-1.891 1.92-2.835 4.192-2.835 6.816s0.945 4.88 2.835 6.768c1.89 1.888 4.141 2.832 6.752 2.832 2.643 0 4.934-0.952 6.873-2.856 1.826-1.808 2.74-4.056 2.74-6.744s-0.929-4.96-2.788-6.816c-1.859-1.856-4.133-2.784-6.825-2.784zM10.012 2.128c2.179 0 4.029 0.768 5.551 2.304 1.538 1.52 2.307 3.376 2.307 5.568 0 2.208-0.753 4.040-2.259 5.496-1.586 1.568-3.452 2.352-5.599 2.352s-3.997-0.776-5.551-2.328c-1.554-1.552-2.331-3.392-2.331-5.52s0.785-3.984 2.355-5.568c1.506-1.536 3.348-2.304 5.527-2.304z"></path>
<path fill="#444444" d="M5.733 8.645c0.383-2.415 2.083-3.707 4.214-3.707 3.065 0 4.933 2.224 4.933 5.189 0 2.894-1.987 5.142-4.98 5.142-2.059 0-3.903-1.267-4.238-3.754h2.418c0.072 1.291 0.91 1.746 2.107 1.746 1.365 0 2.251-1.268 2.251-3.205 0-2.033-0.766-3.109-2.203-3.109-1.053 0-1.963 0.383-2.155 1.698l0.703-0.004-1.904 1.903-1.904-1.903 0.758 0.004z"></path>
</svg>
