<?xml version="1.0" encoding="utf-8"?>
<!-- Generated by IcoMoon.io -->
<!DOCTYPE svg PUBLIC "-//W3C//DTD SVG 1.1//EN" "http://www.w3.org/Graphics/SVG/1.1/DTD/svg11.dtd">
<svg version="1.1" xmlns="http://www.w3.org/2000/svg" xmlns:xlink="http://www.w3.org/1999/xlink" width="20" height="20" viewBox="0 0 20 20">
<path fill="#444444" d="M7.651 11.628c-0.406 0-0.713-0.148-0.92-0.445-0.209-0.295-0.313-0.689-0.313-1.182 0-1.084 0.41-1.627 1.232-1.627 0.164 0 0.342 0.055 0.533 0.164s0.353 0.301 0.484 0.574l1.232-0.641c-0.492-0.887-1.309-1.33-2.447-1.33-0.778 0-1.422 0.258-1.93 0.771-0.51 0.516-0.766 1.211-0.766 2.088 0 0.898 0.253 1.6 0.756 2.104 0.504 0.504 1.168 0.754 1.988 0.754 0.516 0 0.986-0.129 1.413-0.385 0.427-0.258 0.761-0.611 1.003-1.061l-1.135-0.574c-0.219 0.525-0.597 0.789-1.133 0.789zM12.958 11.628c-0.406 0-0.713-0.148-0.92-0.445-0.209-0.295-0.313-0.689-0.313-1.182 0-1.084 0.41-1.627 1.232-1.627 0.174 0 0.357 0.055 0.549 0.164 0.192 0.109 0.354 0.301 0.486 0.574l1.215-0.641c-0.482-0.887-1.293-1.33-2.432-1.33-0.777 0-1.421 0.258-1.93 0.771-0.51 0.516-0.764 1.211-0.764 2.088 0 0.898 0.248 1.6 0.747 2.104s1.163 0.754 1.996 0.754c0.503 0 0.97-0.129 1.396-0.385 0.428-0.258 0.768-0.611 1.020-1.061l-1.15-0.574c-0.219 0.525-0.598 0.789-1.133 0.789zM16.813 3.184c-1.859-1.856-4.134-2.784-6.825-2.784-2.659 0-4.91 0.927-6.752 2.784-1.89 1.92-2.835 4.192-2.835 6.816s0.945 4.88 2.835 6.768c1.89 1.888 4.141 2.832 6.752 2.832 2.643 0 4.935-0.952 6.873-2.856 1.826-1.808 2.739-4.056 2.739-6.744s-0.929-4.96-2.787-6.816zM15.611 15.496c-1.586 1.568-3.453 2.352-5.6 2.352s-3.997-0.776-5.55-2.328c-1.554-1.551-2.331-3.392-2.331-5.52s0.785-3.984 2.355-5.568c1.506-1.536 3.348-2.304 5.526-2.304s4.029 0.768 5.552 2.304c1.538 1.52 2.307 3.375 2.307 5.568 0 2.208-0.753 4.040-2.259 5.496z"></path>
</svg>
