<?xml version="1.0" encoding="UTF-8" standalone="no"?>
<svg width="20px" height="20px" viewBox="0 0 20 20" version="1.1" xmlns="http://www.w3.org/2000/svg" xmlns:xlink="http://www.w3.org/1999/xlink">
    <!-- Generator: Sketch 3.8.1 (29687) - http://www.bohemiancoding.com/sketch -->
    <title>Shape</title>
    <desc>Created with Sketch.</desc>
    <defs></defs>
    <g id="Page-1" stroke="none" stroke-width="1" fill="none" fill-rule="evenodd">
        <g id="icon--cc-cc0" fill="#444444">
            <path d="M10,4.475 C6.831,4.475 6.034,7.465 6.034,10 C6.034,12.535 6.831,15.526 10,15.526 C13.17,15.526 13.967,12.535 13.967,10 C13.967,7.465 13.17,4.475 10,4.475 L10,4.475 Z M8.293,10 C8.293,8.884 8.37,6.558 10,6.558 C10.129,6.558 10.246,6.579 10.356,6.606 C10.585,6.802 10.696,7.074 10.477,7.453 L8.367,11.332 C8.302,10.841 8.293,10.358 8.293,10 L8.293,10 Z M10,13.441 C9.872,13.441 9.754,13.428 9.645,13.401 C9.624,13.395 9.604,13.388 9.583,13.381 C9.55,13.37 9.514,13.36 9.482,13.347 C9.12,13.193 8.891,12.913 9.22,12.419 L11.579,8.345 C11.691,8.941 11.707,9.563 11.707,9.999 C11.708,11.117 11.63,13.441 10,13.441 L10,13.441 Z M10,0.4 C4.698,0.4 0.4,4.698 0.4,10 C0.4,15.302 4.698,19.6 10,19.6 C15.302,19.6 19.6,15.302 19.6,10 C19.6,4.698 15.302,0.4 10,0.4 L10,0.4 Z M10,17.84 C5.67,17.84 2.16,14.33 2.16,10 C2.16,5.67 5.67,2.16 10,2.16 C14.33,2.16 17.84,5.67 17.84,10 C17.84,14.33 14.33,17.84 10,17.84 L10,17.84 Z" id="Shape"></path>
        </g>
    </g>
</svg>