<?xml version="1.0" encoding="utf-8"?>
<!-- Generated by IcoMoon.io -->
<!DOCTYPE svg PUBLIC "-//W3C//DTD SVG 1.1//EN" "http://www.w3.org/Graphics/SVG/1.1/DTD/svg11.dtd">
<svg version="1.1" xmlns="http://www.w3.org/2000/svg" xmlns:xlink="http://www.w3.org/1999/xlink" width="20" height="20" viewBox="0 0 20 20">
<path d="M10 4.475c-3.169 0-3.966 2.99-3.966 5.525s0.797 5.526 3.966 5.526c3.17 0 3.967-2.991 3.967-5.526s-0.797-5.525-3.967-5.525zM8.293 10c0-1.116 0.077-3.442 1.707-3.442 0.129 0 0.246 0.021 0.356 0.048 0.229 0.196 0.34 0.468 0.121 0.847l-2.11 3.879c-0.065-0.491-0.074-0.974-0.074-1.332zM10 13.441c-0.128 0-0.246-0.013-0.355-0.040-0.021-0.006-0.041-0.013-0.062-0.020-0.033-0.011-0.069-0.021-0.101-0.034-0.362-0.154-0.591-0.434-0.262-0.928l2.359-4.074c0.112 0.596 0.128 1.218 0.128 1.654 0.001 1.118-0.077 3.442-1.707 3.442zM10 0.4c-5.302 0-9.6 4.298-9.6 9.6s4.298 9.6 9.6 9.6 9.6-4.298 9.6-9.6-4.298-9.6-9.6-9.6zM10 17.84c-4.33 0-7.84-3.51-7.84-7.84s3.51-7.84 7.84-7.84 7.84 3.51 7.84 7.84-3.51 7.84-7.84 7.84z"></path>
</svg>
