<?xml version="1.0" encoding="utf-8"?>
<!-- Generator: Adobe Illustrator 16.0.0, SVG Export Plug-In . SVG Version: 6.00 Build 0)  -->
<!DOCTYPE svg PUBLIC "-//W3C//DTD SVG 1.1//EN" "http://www.w3.org/Graphics/SVG/1.1/DTD/svg11.dtd">
<svg version="1.1" id="Layer_1" xmlns="http://www.w3.org/2000/svg" xmlns:xlink="http://www.w3.org/1999/xlink" x="0px" y="0px"
	 width="20px" height="20px" viewBox="0 0 20 20" enable-background="new 0 0 20 20" xml:space="preserve">
<path fill="#054163" d="M11.704,10l7.943-7.943c0.471-0.471,0.471-1.233,0-1.704c-0.471-0.471-1.233-0.471-1.703,0L10,8.296
	L2.057,0.353c-0.471-0.471-1.233-0.471-1.704,0c-0.47,0.471-0.47,1.233,0,1.704L8.297,10l-7.944,7.944
	c-0.47,0.471-0.47,1.232,0,1.703C0.589,19.882,0.897,20,1.205,20s0.617-0.118,0.852-0.354L10,11.703l7.944,7.943
	C18.179,19.882,18.487,20,18.795,20c0.31,0,0.617-0.118,0.853-0.354c0.471-0.471,0.471-1.232,0-1.703L11.704,10z"/>
</svg>
