<?xml version="1.0" encoding="UTF-8" standalone="no"?>
<svg width="15px" height="15px" viewBox="0 0 15 15" version="1.1" xmlns="http://www.w3.org/2000/svg" xmlns:xlink="http://www.w3.org/1999/xlink" xmlns:sketch="http://www.bohemiancoding.com/sketch/ns">
    <!-- Generator: Sketch 3.3.3 (12072) - http://www.bohemiancoding.com/sketch -->
    <title>Imported Layers</title>
    <desc>Created with Sketch.</desc>
    <defs></defs>
    <g id="Person-page" stroke="none" stroke-width="1" fill="none" fill-rule="evenodd" sketch:type="MSPage">
        <g id="Main-menu-out" sketch:type="MSArtboardGroup" transform="translate(-68.000000, -285.000000)" fill="#000000">
            <g id="Group" sketch:type="MSLayerGroup" transform="translate(62.000000, 106.000000)">
                <g id="Geavanceerd-zoeken-+-Oval-29-Copy-3-+-Oval-29-Copy-5-+-Imported-Layers-Copy-4-Copy-Copy-+-Imported-Layers" transform="translate(0.000000, 173.000000)" sketch:type="MSShapeGroup">
                    <g id="Oval-29-Copy-3-+-Oval-29-Copy-5-+-Imported-Layers-Copy-4-Copy-Copy-+-Imported-Layers">
                        <g id="Oval-29-Copy-5-+-Imported-Layers-Copy-4-Copy-Copy-+-Imported-Layers" transform="translate(6.000000, 6.000000)">
                            <path d="M7.36145455,10.4513889 C5.66754545,10.4513889 4.29545455,9.05277778 4.29545455,7.32861111 C4.29545455,5.60333333 5.66863636,4.20472222 7.36145455,4.20472222 C9.05427273,4.20472222 10.4274545,5.60333333 10.4274545,7.32861111 C10.4285455,9.05277778 9.05536364,10.4513889 7.36145455,10.4513889 L7.36145455,10.4513889 Z M13.0333636,7.40444444 C13.0333636,7.13333333 13.0088182,6.8675 12.9725455,6.60583333 L14.7185455,5.57833333 L12.5923636,1.82611111 L10.8460909,2.85166667 C10.4337273,2.525 9.97881818,2.2525 9.48681818,2.04972222 L9.48681818,0 L5.23172727,0 L5.23172727,2.04972222 C4.74054545,2.2525 4.28481818,2.52388889 3.87245455,2.85166667 L2.12618182,1.82611111 L0,5.57833333 L1.746,6.60583333 C1.70972727,6.86861111 1.68518182,7.13333333 1.68518182,7.40444444 C1.68518182,7.67583333 1.70972727,7.94166667 1.746,8.20305556 L0,9.22972222 L2.12727273,12.9838889 L3.87354545,11.9575 C4.28481818,12.2852778 4.74054545,12.5563889 5.23281818,12.7594444 L5.23281818,14.8091667 L9.48790909,14.8091667 L9.48790909,12.7594444 C9.97990909,12.5563889 10.4359091,12.2852778 10.8471818,11.9575 L12.5931818,12.9838889 L14.7207273,9.22972222 L12.9747273,8.20305556 C13.0088182,7.94166667 13.0333636,7.67694444 13.0333636,7.40444444 L13.0333636,7.40444444 Z" id="Imported-Layers"></path>
                        </g>
                    </g>
                </g>
            </g>
        </g>
    </g>
</svg>