<?xml version="1.0" encoding="utf-8"?>
<!-- Generator: Adobe Illustrator 16.0.0, SVG Export Plug-In . SVG Version: 6.00 Build 0)  -->
<!DOCTYPE svg PUBLIC "-//W3C//DTD SVG 1.1//EN" "http://www.w3.org/Graphics/SVG/1.1/DTD/svg11.dtd">
<svg version="1.1" id="Layer_1" xmlns="http://www.w3.org/2000/svg" xmlns:xlink="http://www.w3.org/1999/xlink" x="0px" y="0px"
	 width="15.993px" height="20px" viewBox="0 0 15.993 20" enable-background="new 0 0 15.993 20" xml:space="preserve">
<g>
	<path fill-rule="evenodd" clip-rule="evenodd" fill="#054163" d="M14.314,1.629H7.105C6.817,0.814,6.304,0,5.721,0H1.629
		C0.733,0,0,1.918,0,2.814v0.494v0.167v8.321c0,0.924,0.755,1.68,1.679,1.68h3.083v-1.192c0-2.122,1.589-2.351,2.272-2.351h0.962
		h0.963c0.684,0,2.272,0.229,2.272,2.351v1.192h3.083c0.923,0,1.679-0.756,1.679-1.68V3.309C15.993,2.385,15.237,1.629,14.314,1.629
		"/>
	<path fill-rule="evenodd" clip-rule="evenodd" fill="#054163" d="M11.838,15.377h-2.07v-3.093c0-0.66-0.148-0.887-0.809-0.887
		H7.996H7.034c-0.66,0-0.808,0.227-0.808,0.887v3.093h-2.07c-0.218,0-0.394,0.176-0.394,0.394c0,0.162,0.124,0.285,0.124,0.285
		l1.967,1.965l1.878,1.872C7.8,19.958,7.893,19.999,7.996,20c0.103-0.001,0.197-0.042,0.266-0.107l1.878-1.872l1.965-1.963
		c0.076-0.072,0.125-0.174,0.125-0.287C12.23,15.553,12.055,15.377,11.838,15.377"/>
</g>
</svg>
