<svg width="29px" height="20px" viewBox="0 0 29 20" version="1.1" xmlns="http://www.w3.org/2000/svg" xmlns:xlink="http://www.w3.org/1999/xlink">
    <g transform="translate(0, 0.4448120000000131)" fill="#4A4A4A" stroke="none" stroke-width="1" fill-rule="evenodd">
        <path d="M15.1314286,11.3971429 L27.7385714,0.874285714 C27.3285714,0.591428571 26.8314286,0.422857143 26.3,0.422857143 L3.20857143,0.422857143 C2.70142857,0.422857143 2.22857143,0.575714286 1.83,0.837142857 L15.1314286,11.3971429"></path>
        <path d="M14.9542857,15.4642857 C12.2871429,15.4642857 1.01285714,1.70857143 1.01285714,1.70857143 C0.8,2.08142857 0.665714286,2.50857143 0.665714286,2.96714286 L0.665714286,16.8628571 C0.665714286,18.2585714 1.81142857,19.4028571 3.20857143,19.4028571 L26.3,19.4028571 C27.6971429,19.4028571 28.8428571,18.2585714 28.8428571,16.8628571 L28.8428571,2.96714286 C28.8428571,2.50857143 28.7114286,2.08285714 28.4971429,1.71285714 C28.4971429,1.71285714 17.6214286,15.4642857 14.9542857,15.4642857"></path>
    </g>
</svg>
