<?xml version="1.0" encoding="UTF-8"?>
<svg width="15px" height="15px" viewBox="0 0 15 15" version="1.1" xmlns="http://www.w3.org/2000/svg" xmlns:xlink="http://www.w3.org/1999/xlink">
    <!-- Generator: Sketch 42 (36781) - http://www.bohemiancoding.com/sketch -->
    <title>Group</title>
    <desc>Created with Sketch.</desc>
    <defs></defs>
    <g id="-Uitgebreide-zoekpagina" stroke="none" stroke-width="1" fill="none" fill-rule="evenodd">
        <g id="verfijnen-zoek-iphone5" transform="translate(-47.000000, -75.000000)" fill-rule="nonzero" fill="#4C4C4C">
            <g id="Group-5" transform="translate(47.000000, 68.000000)">
                <g id="noun_582850" transform="translate(0.000000, 7.000000)">
                    <g id="Group">
                        <path d="M14.1263736,6.78333333 L12.6923077,6.78333333 C12.3956044,5.96666667 11.6373626,5.38333333 10.7307692,5.38333333 C9.82417582,5.38333333 9.06593407,5.96666667 8.76923077,6.78333333 L0.692307692,6.78333333 C0.313186813,6.78333333 0,7.1 0,7.5 C0,7.9 0.313186813,8.21666667 0.708791209,8.21666667 L8.78571429,8.21666667 C9.08241758,9.03333333 9.84065934,9.61666667 10.7472527,9.61666667 C11.6538462,9.61666667 12.4120879,9.03333333 12.7087912,8.21666667 L14.1428571,8.21666667 C14.5384615,8.21666667 14.8516484,7.9 14.8516484,7.5 C14.8351648,7.1 14.521978,6.78333333 14.1263736,6.78333333 Z" id="Shape"></path>
                        <path d="M14.1263736,12.1833333 L5.91758242,12.1833333 C5.62087912,11.3666667 4.86263736,10.7833333 3.95604396,10.7833333 C3.04945055,10.7833333 2.29120879,11.3666667 1.99450549,12.1833333 L0.708791209,12.1833333 C0.313186813,12.1833333 0,12.5 0,12.8833333 C0,13.2833333 0.313186813,13.6 0.708791209,13.6 L2.01098901,13.6 C2.29120879,14.4166667 3.04945055,15 3.95604396,15 C4.86263736,15 5.62087912,14.4166667 5.91758242,13.6 L14.1263736,13.6 C14.521978,13.6 14.8351648,13.2833333 14.8351648,12.8833333 C14.8351648,12.5 14.521978,12.1833333 14.1263736,12.1833333 Z" id="Shape"></path>
                        <path d="M0.708791209,2.81666667 L5.45604396,2.81666667 C5.75274725,3.63333333 6.51098901,4.21666667 7.41758242,4.21666667 C8.32417582,4.21666667 9.08241758,3.63333333 9.37912088,2.81666667 L14.1263736,2.81666667 C14.521978,2.81666667 14.8351648,2.5 14.8351648,2.1 C14.8351648,1.7 14.521978,1.38333333 14.1263736,1.38333333 L9.37912088,1.38333333 C9.08241758,0.583333333 8.32417582,0 7.41758242,0 C6.51098901,0 5.75274725,0.583333333 5.45604396,1.4 L0.708791209,1.4 C0.313186813,1.4 0,1.71666667 0,2.11666667 C-1.46403036e-16,2.5 0.313186813,2.81666667 0.708791209,2.81666667 Z" id="Shape"></path>
                    </g>
                </g>
            </g>
        </g>
    </g>
</svg>