<?xml version="1.0" encoding="utf-8"?>
<!-- Generator: Adobe Illustrator 16.0.0, SVG Export Plug-In . SVG Version: 6.00 Build 0)  -->
<!DOCTYPE svg PUBLIC "-//W3C//DTD SVG 1.1//EN" "http://www.w3.org/Graphics/SVG/1.1/DTD/svg11.dtd">
<svg version="1.1" id="Layer_1" xmlns="http://www.w3.org/2000/svg" xmlns:xlink="http://www.w3.org/1999/xlink" x="0px" y="0px"
	 width="19.96px" height="17.71px" viewBox="0 0 19.96 17.71" enable-background="new 0 0 19.96 17.71" xml:space="preserve">
<path fill-rule="evenodd" clip-rule="evenodd" fill="#054163" d="M11.797,12.213v3.638c0,0.28-0.178,0.459-0.3,0.459H8.998H6.6
	H1.701c-0.082,0-0.161-0.093-0.183-0.121c-0.013-0.015-0.023-0.031-0.036-0.052l-0.01-0.019c-0.01-0.017-0.019-0.032-0.027-0.053
	l-0.013-0.05l-0.021-0.063L1.41,15.948c-0.006-0.031-0.01-0.064-0.01-0.098V14.43v-1.967V9.839V7.871V4.592V1.86
	c0-0.281,0.178-0.46,0.301-0.46h9.796c0.122,0,0.3,0.179,0.3,0.46v4.437l0.122-0.123l1.278-1.279V1.86c0-1.023-0.765-1.86-1.7-1.86
	H1.701C0.767,0,0,0.837,0,1.86v2.732v3.279v1.968v2.624v1.967v1.421c0,0.119,0.012,0.236,0.033,0.35
	c0.013,0.072,0.035,0.142,0.056,0.211c0.011,0.035,0.018,0.07,0.029,0.104c0.033,0.094,0.074,0.18,0.12,0.266
	c0.003,0.004,0.005,0.01,0.008,0.017c0.05,0.092,0.108,0.176,0.171,0.257c0.312,0.398,0.771,0.656,1.284,0.656H6.6h2.398h2.499
	c0.936,0,1.7-0.838,1.7-1.859v-2.236l-1.279-1.28L11.797,12.213z"/>
<path fill-rule="evenodd" clip-rule="evenodd" fill="#054163" d="M18.979,7.294h-3.426V5.002c0-0.241-0.194-0.436-0.435-0.436
	c-0.126,0-0.238,0.054-0.317,0.139l-2.175,2.176L10.554,8.96c-0.072,0.077-0.118,0.18-0.12,0.295
	c0.002,0.114,0.048,0.217,0.12,0.294l2.072,2.079l2.176,2.178c0,0,0.138,0.137,0.316,0.137c0.24,0,0.435-0.194,0.435-0.436v-2.292
	h3.426c0.73,0,0.981-0.164,0.981-0.896V9.255V8.189C19.96,7.458,19.709,7.294,18.979,7.294"/>
</svg>
