<?xml version="1.0" encoding="UTF-8" standalone="no"?>
<svg width="17px" height="16px" viewBox="0 0 17 16" version="1.1" xmlns="http://www.w3.org/2000/svg" xmlns:xlink="http://www.w3.org/1999/xlink" xmlns:sketch="http://www.bohemiancoding.com/sketch/ns">
    <!-- Generator: Sketch 3.4 (15575) - http://www.bohemiancoding.com/sketch -->
    <title>Fill 1</title>
    <desc>Created with Sketch.</desc>
    <defs></defs>
    <g id="Search-&amp;-list-template" stroke="none" stroke-width="1" fill="none" fill-rule="evenodd" sketch:type="MSPage">
        <g id="Mobiel-search-list-1" sketch:type="MSArtboardGroup" transform="translate(-166.000000, -170.000000)" fill="#75624E">
            <g id="map" sketch:type="MSLayerGroup" transform="translate(154.000000, 161.000000)">
                <g id="Fill-1-+-Oval-18-Copy-212-+-Oval-18-Copy-212" transform="translate(12.000000, 8.000000)" sketch:type="MSShapeGroup">
                    <path d="M16.9800032,15.0093326 L16.9800032,2.86964932 L13.5405269,1.5 C13.4490763,1.84235294 13.3043075,2.21429864 13.1241613,2.5984276 L15.8166791,3.65708145 L15.8166791,13.2548416 L12.4990921,11.8750452 L12.4990921,6.67625566 L11.3360368,6.67191176 L11.3360368,12.3578281 L5.64395968,14.7259276 L5.64395968,5.12769231 L8.64996957,4.0854638 C8.46058419,3.71830317 8.2957581,3.35647059 8.1714834,3.0136086 L4.48117312,4.33975113 L-6.71936755e-06,2.47642534 L-6.71936755e-06,14.6161425 L4.48117312,16.4804864 L12.4990921,13.1452602 L12.4990921,13.1457692 L16.9800032,15.0093326 Z M4.48117312,15.209457 L1.16355257,13.8287104 L1.16355257,4.23071267 L4.48117312,5.61074661 L4.48117312,15.209457 Z" id="Fill-1"></path>
                </g>
            </g>
        </g>
    </g>
</svg>