<?xml version="1.0" encoding="UTF-8" standalone="no"?>
<svg width="16px" height="20px" viewBox="0 0 16 20" version="1.1" xmlns="http://www.w3.org/2000/svg" xmlns:xlink="http://www.w3.org/1999/xlink">
    <!-- Generator: Sketch 3.6.1 (26313) - http://www.bohemiancoding.com/sketch -->
    <title>pen-icon copy</title>
    <desc>Created with Sketch.</desc>
    <defs></defs>
    <g id="stadsdeel---article" stroke="none" stroke-width="1" fill="none" fill-rule="evenodd">
        <g id="stadsdeel-Article-ingeklapt" transform="translate(-621.000000, -1399.000000)" fill="#000000">
            <g id="pen-icon-copy" transform="translate(621.000000, 1399.000000)">
                <path d="M14.3891667,6.07352113 L15.3644444,4.67380282 C15.7019444,4.18647887 15.5577778,3.49549296 15.0391667,3.13126761 L11.0361111,0.301126761 C10.5186111,-0.0650704225 9.82416667,0.0326760563 9.48472222,0.518873239 L8.51027778,1.91859155 L14.3891667,6.07352113" id="Fill-1"></path>
                <path d="M7.64527778,3.16112676 L1.77833333,11.5842254 C1.50611111,13.3856338 5.93416667,16.5335211 7.65611111,15.7402817 L13.5244444,7.31605634 L7.64527778,3.16112676" id="Fill-2"></path>
                <path d="M0.883333333,13.008169 C0.508888889,13.9104225 0.101944444,18.2678873 0.233333333,19.4760563 C0.260555556,19.7191549 0.303888889,19.8467606 0.378611111,19.896338 C0.820277778,20.1932394 5.86916667,17.7230986 6.64055556,17.0628169 C4.88722222,17.6349296 0.865833333,14.7828169 0.883333333,13.008169" id="Fill-3"></path>
            </g>
        </g>
    </g>
</svg>