<?xml version="1.0" encoding="UTF-8" standalone="no"?>
<svg width="13px" height="18px" viewBox="0 0 13 18" version="1.1" xmlns="http://www.w3.org/2000/svg" xmlns:xlink="http://www.w3.org/1999/xlink" xmlns:sketch="http://www.bohemiancoding.com/sketch/ns">
    <!-- Generator: Sketch 3.3.3 (12072) - http://www.bohemiancoding.com/sketch -->
    <title>Path Copy 3</title>
    <desc>Created with Sketch.</desc>
    <defs></defs>
    <g id="Content-page" stroke="none" stroke-width="1" fill="none" fill-rule="evenodd" sketch:type="MSPage">
        <path d="M10.2769861,17.6004061 C9.66600768,17.6004061 6.28031946,17.5193909 5.41627302,17.5193909 C4.55162405,17.5193909 0.046411222,16.0988832 0.046411222,11.0881218 C0.046411222,10.195736 0.0458086792,9.29847716 0.0433985078,8.4048731 C0.0397832508,7.57218274 0.0229120512,6.74071066 0.019899337,5.91411168 C0.0192967942,5.67228426 0.0180917085,5.43106599 0.0168866228,5.18923858 C0.0108611944,3.9271066 -0.0945838028,2.50659898 0.30670973,1.29441624 C0.614006579,0.369746193 1.34067325,0 2.23605191,0 C4.40098834,0 4.54559862,2.23187817 4.55162405,4.4728934 L10.8102365,4.4728934 C11.8014195,4.4728934 12.5413421,5.48893401 12.5413421,7.04406091 C12.5413421,8.59796954 10.9379756,8.94639594 10.0980309,8.94639594 L4.48233162,8.94639594 C4.45401211,9.89847716 4.42388496,10.6726904 4.42388496,11.1435533 C4.42388496,12.133401 4.80589713,13.2054822 7.19738966,13.2054822 L10.5583736,13.2054822 C11.3977158,13.2054822 12.6431719,13.8481218 12.6431719,15.6432487 C12.6431719,17.4365482 10.8879646,17.6004061 10.2769861,17.6004061 L10.2769861,17.6004061 Z" id="Path-Copy-3" fill="#000000" sketch:type="MSShapeGroup"></path>
    </g>
</svg>