<svg width="18px" height="20px" viewBox="0 0 18 20" version="1.1" xmlns="http://www.w3.org/2000/svg" xmlns:xlink="http://www.w3.org/1999/xlink">
    <path d="M4.11279038,13.8833802 C3.74871664,14.0966026 3.02318357,14.242664 2.19248455,14.242664 C0.99945957,14.242664 0.02334822,13.2777614 0.02334822,12.0984361 L0.02334822,2.18138178 C0.02334822,1.0020564 0.99945957,0.0371538236 2.19248455,0.0371538236 L15.2073026,0.0371538236 C16.4003275,0.0371538236 17.3764389,1.0020564 17.3764389,2.18138178 L17.3764389,12.0984361 C17.3764389,13.2777614 16.4003275,13.9746355 15.2073026,13.9746355 L11.1108886,13.9746355 C9.9203881,13.9746355 9.21588,13.8080928 9.5416015,13.4409171 L8.94175226,13.9746355 L4.36162089,13.9746355 L4.36162089,13.9185705 C4.27471156,13.9082923 4.19158415,13.8965705 4.11279038,13.8833802 Z M4.36162089,19.3352054 L8.94175226,13.9746355 L4.36162089,13.9746355 L4.36162089,19.3352054 Z" fill="#4A4A4A"></path>
</svg>
