<?xml version="1.0" encoding="utf-8"?>
<!-- Generator: Adobe Illustrator 16.0.0, SVG Export Plug-In . SVG Version: 6.00 Build 0)  -->
<!DOCTYPE svg PUBLIC "-//W3C//DTD SVG 1.1//EN" "http://www.w3.org/Graphics/SVG/1.1/DTD/svg11.dtd">
<svg version="1.1" id="Layer_1" xmlns="http://www.w3.org/2000/svg" xmlns:xlink="http://www.w3.org/1999/xlink" x="0px" y="0px"
	 width="20.061px" height="17.062px" viewBox="0 0 20.061 17.062" enable-background="new 0 0 20.061 17.062" xml:space="preserve">
<path fill="#054163" d="M16.727,6.714c-0.817-0.348-1.381-1.193-1.895-1.997c-0.646-1.013-1.378-2.16-2.57-2.704
	c-0.838-0.382-1.785-0.511-2.821-0.386L8.174,4.607c1.255-0.521,2.162-0.381,2.934-0.052c0.781,0.332,1.434,0.906,1.912,1.654
	c0.688,1.08,1.541,2.365,2.869,2.93c1.194,0.508,1.959,0.419,2.916,0.357L20,6.688C19.983,6.696,18.143,7.316,16.727,6.714"/>
<path fill="#054163" d="M14.617,11.671c-0.817-0.349-1.381-1.193-1.894-1.998c-0.646-1.013-1.379-2.16-2.57-2.704
	c-0.838-0.382-1.785-0.511-2.82-0.386L6.064,9.564c1.255-0.521,2.162-0.381,2.935-0.052c0.78,0.333,1.433,0.906,1.911,1.654
	c0.688,1.08,1.542,2.365,2.869,2.931c1.194,0.508,1.96,0.418,2.916,0.356l1.194-2.808C17.874,11.652,16.033,12.273,14.617,11.671"/>
<path fill="#054163" d="M7.5,0.049C7.175-0.086,6.802,0.066,6.666,0.392L0.049,16.177c-0.136,0.324,0.017,0.699,0.342,0.834
	c0.121,0.052,0.248,0.062,0.367,0.039c0.203-0.039,0.383-0.176,0.469-0.381L7.842,0.884C7.979,0.56,7.826,0.186,7.5,0.049"/>
</svg>
