<svg width="17px" height="20px" viewBox="0 0 17 20" version="1.1" xmlns="http://www.w3.org/2000/svg" xmlns:xlink="http://www.w3.org/1999/xlink">
    <path d="M11.9618182,0 L2.771,0 C1.496,0 0,1.06222222 0,2.28444444 L0,17.8392593 C0,19.0614815 1.496,19 2.771,19 L15.1346364,19 C16.4096364,19 17,19.0614815 17,17.8392593 L17,5.32592593 L11.9618182,0 L11.9618182,0 Z M3.0909091,3.7037037 L11.5909091,3.7037037 L11.5909091,5.92592593 L3.0909091,5.92592593 L3.0909091,3.7037037 Z M3.0909091,14.0740741 L13.9090909,14.0740741 L13.9090909,16.2962963 L3.0909091,16.2962963 L3.0909091,14.0740741 Z M3.0909091,8.8888889 L13.9090909,8.8888889 L13.9090909,11.1111111 L3.0909091,11.1111111 L3.0909091,8.8888889 Z" fill="#FFFFFF"></path>
</svg>
