<?xml version="1.0" encoding="utf-8"?>
<!-- Generator: Adobe Illustrator 16.0.0, SVG Export Plug-In . SVG Version: 6.00 Build 0)  -->
<!DOCTYPE svg PUBLIC "-//W3C//DTD SVG 1.1//EN" "http://www.w3.org/Graphics/SVG/1.1/DTD/svg11.dtd">
<svg version="1.1" id="Layer_1" xmlns="http://www.w3.org/2000/svg" xmlns:xlink="http://www.w3.org/1999/xlink" x="0px" y="0px"
	 width="21.383px" height="18.107px" viewBox="0 0 21.383 18.107" enable-background="new 0 0 21.383 18.107" xml:space="preserve">
<path fill="#054163" d="M10.692,18.107l-0.344-0.176C9.29,17.386,0,12.436,0,6.311C0,2.477,2.266,0,5.775,0
	c2.526,0,3.903,0.901,4.917,2.34C11.705,0.901,13.082,0,15.608,0c3.509,0,5.774,2.477,5.774,6.311
	c0,6.126-9.289,11.076-10.348,11.62L10.692,18.107z M5.775,1.5C3.098,1.5,1.5,3.298,1.5,6.311c0,4.81,7.462,9.159,9.192,10.103
	c1.729-0.943,9.19-5.293,9.19-10.103c0-3.013-1.598-4.811-4.274-4.811c-2.4,0-3.348,0.928-4.253,2.639L10.692,5.39l-0.663-1.251
	C9.123,2.428,8.175,1.5,5.775,1.5"/>
</svg>
