<svg width="19px" height="19px" viewBox="0 0 19 19" version="1.1" xmlns="http://www.w3.org/2000/svg" xmlns:xlink="http://www.w3.org/1999/xlink">
    <g transform="translate(-23, -545)" fill="#4A4A4A" stroke="none" stroke-width="1" fill-rule="evenodd">
        <path d="M36.6030779,563.410911 C35.1420779,563.317911 33.7450779,562.807911 32.4370779,562.071911 C29.3480779,560.329911 26.7330779,558.065911 24.8820779,555.000911 C23.9390779,553.438911 23.3030779,551.756911 23.0450779,549.943911 C22.8390779,548.505911 23.3490779,547.314911 24.3710779,546.344911 C24.8130779,545.924911 25.3530779,545.605911 25.8550779,545.251911 C25.9670779,545.173911 26.1090779,545.127911 26.2430779,545.089911 C26.8860779,544.908911 27.0640779,544.973911 27.4080779,545.537911 C28.1080779,546.680911 28.8040779,547.825911 29.4970779,548.972911 C29.7630779,549.411911 29.7580779,549.663911 29.3950779,550.025911 C28.9890779,550.429911 28.5360779,550.785911 28.1090779,551.168911 C27.8980779,551.356911 27.6940779,551.554911 27.4990779,551.758911 C27.3250779,551.941911 27.2910779,552.159911 27.3540779,552.408911 C27.5540779,553.193911 27.9920779,553.849911 28.4880779,554.468911 C29.4430779,555.661911 30.6170779,556.623911 31.8060779,557.565911 C32.3930779,558.028911 33.0070779,558.461911 33.6320779,558.873911 C34.3490779,559.346911 34.5700779,559.294911 35.1210779,558.621911 C35.4260779,558.247911 35.7150779,557.858911 36.0250779,557.489911 C36.1800779,557.306911 36.3590779,557.141911 36.5420779,556.986911 C36.7790779,556.785911 37.0520779,556.777911 37.3120779,556.929911 C38.6130779,557.687911 39.9130779,558.449911 41.2030779,559.227911 C41.3140779,559.294911 41.3880779,559.501911 41.3910779,559.646911 C41.3980779,559.858911 41.3510779,560.078911 41.2810779,560.281911 C40.5120779,562.496911 38.3590779,563.469911 36.6030779,563.410911"></path>
    </g>
</svg>
