<?xml version="1.0" encoding="utf-8"?>
<!-- Generator: Adobe Illustrator 16.0.0, SVG Export Plug-In . SVG Version: 6.00 Build 0)  -->
<!DOCTYPE svg PUBLIC "-//W3C//DTD SVG 1.1//EN" "http://www.w3.org/Graphics/SVG/1.1/DTD/svg11.dtd">
<svg version="1.1" id="Layer_1" xmlns="http://www.w3.org/2000/svg" xmlns:xlink="http://www.w3.org/1999/xlink" x="0px" y="0px"
	 width="18px" height="15px" viewBox="0 0 18 15" enable-background="new 0 0 18 15" xml:space="preserve">
<g transform="translate(1, 0)">
	<path fill="#0087D2" d="M15.733,2.423h-15c-0.552,0-1-0.448-1-1s0.448-1,1-1h15c0.553,0,1,0.448,1,1S16.286,2.423,15.733,2.423z"/>
	<path fill="#0087D2" d="M15.733,8.545h-15c-0.552,0-1-0.447-1-1s0.448-1,1-1h15c0.553,0,1,0.448,1,1S16.286,8.545,15.733,8.545z"/>
	<path fill="#0087D2" d="M15.733,14.577h-15c-0.552,0-1-0.447-1-1s0.448-1,1-1h15c0.553,0,1,0.447,1,1S16.286,14.577,15.733,14.577z
		"/>
</g>
</svg>
