<?xml version="1.0" encoding="utf-8"?>
<!-- Generator: Adobe Illustrator 16.0.0, SVG Export Plug-In . SVG Version: 6.00 Build 0)  -->
<!DOCTYPE svg PUBLIC "-//W3C//DTD SVG 1.1//EN" "http://www.w3.org/Graphics/SVG/1.1/DTD/svg11.dtd">
<svg version="1.1" id="Layer_1" xmlns="http://www.w3.org/2000/svg" xmlns:xlink="http://www.w3.org/1999/xlink" x="0px" y="0px"
	 width="20.083px" height="21.934px" viewBox="0 0 20.083 21.934" enable-background="new 0 0 20.083 21.934" xml:space="preserve">
<g>
	<path fill="#054163" d="M2.589,13.56v6.604c0,0.973,0.796,1.77,1.769,1.77h11.368c0.973,0,1.769-0.797,1.769-1.77V13.56
		l-7.493-7.785L2.589,13.56z"/>
	<path fill="#054163" d="M19.79,9.748L10.042,0L0.293,9.748c-0.391,0.391-0.391,1.023,0,1.414C0.488,11.357,0.744,11.455,1,11.455
		s0.512-0.098,0.707-0.293l8.335-8.334l8.334,8.334c0.391,0.391,1.023,0.391,1.414,0S20.181,10.139,19.79,9.748"/>
</g>
</svg>
