<?xml version="1.0" encoding="utf-8"?>
<!-- Generator: Adobe Illustrator 16.0.0, SVG Export Plug-In . SVG Version: 6.00 Build 0)  -->
<!DOCTYPE svg PUBLIC "-//W3C//DTD SVG 1.1//EN" "http://www.w3.org/Graphics/SVG/1.1/DTD/svg11.dtd">
<svg version="1.1" id="Layer_1" xmlns="http://www.w3.org/2000/svg" xmlns:xlink="http://www.w3.org/1999/xlink" x="0px" y="0px"
	 width="20.062px" height="17.641px" viewBox="0 0 20.062 17.641" enable-background="new 0 0 20.062 17.641" xml:space="preserve">
<path fill="#054163" d="M18.655,14.862H1.427c-0.765,0-1.386,0.621-1.386,1.386c0,0.766,0.621,1.387,1.386,1.387h17.228
	c0.766,0,1.387-0.621,1.387-1.387C20.042,15.483,19.42,14.862,18.655,14.862"/>
<path fill="#054163" d="M18.655,7.44H1.427c-0.765,0-1.386,0.621-1.386,1.386c0,0.767,0.621,1.387,1.386,1.387h17.228
	c0.766,0,1.387-0.62,1.387-1.387C20.042,8.062,19.42,7.44,18.655,7.44"/>
<path fill="#054163" d="M1.428,2.79h17.228c0.765,0,1.386-0.62,1.386-1.386s-0.621-1.387-1.386-1.387H1.428
	c-0.766,0-1.387,0.621-1.387,1.387S0.663,2.79,1.428,2.79"/>
</svg>
