<svg width="17px" height="20px" viewBox="0 0 17 20" version="1.1" xmlns="http://www.w3.org/2000/svg" xmlns:xlink="http://www.w3.org/1999/xlink">
    <path d="M12.495,0 C12.105545,4.25925926 13.242227,10.4081481 13.242227,10.4081481 C13.242227,10.4081481 11.033,8.6940741 9.917182,7.54592593 C8.856227,8.597037 6.664773,10.2481481 6.664773,10.2481481 C6.664773,10.2481481 7.920455,4.38296296 7.520955,0 L2.256364,0 C0.982136,0 0,1 0,2.22222222 L0,17.7777778 C0,19 0.982136,20 2.256364,20 L14.62,20 C15.895,20 17,19 17,17.7777778 L17,2.22222222 C17,1 15.895,0 14.62,0 L12.495,0 Z" fill="#004063"></path>
</svg>
