<?xml version="1.0" encoding="utf-8"?>
<!-- Generator: Adobe Illustrator 16.0.0, SVG Export Plug-In . SVG Version: 6.00 Build 0)  -->
<!DOCTYPE svg PUBLIC "-//W3C//DTD SVG 1.1//EN" "http://www.w3.org/Graphics/SVG/1.1/DTD/svg11.dtd">
<svg version="1.1" id="Layer_1" xmlns="http://www.w3.org/2000/svg" xmlns:xlink="http://www.w3.org/1999/xlink" x="0px" y="0px"
	 width="17.335px" height="20px" viewBox="0 0 17.335 20" enable-background="new 0 0 17.335 20" xml:space="preserve">
<g>
	<path fill-rule="evenodd" clip-rule="evenodd" fill="#054163" d="M15.839,2.724v1.29c0,0.203-0.03,0.405-0.096,0.62
		c-0.066,0.222-0.164,0.425-0.289,0.606c-0.4,0.575-1.059,0.919-1.759,0.919c-0.698,0-1.354-0.342-1.759-0.92
		c-0.125-0.18-0.223-0.384-0.292-0.615c-0.063-0.213-0.093-0.413-0.093-0.61V2.693H5.784v1.321c0,0.203-0.031,0.405-0.096,0.62
		C5.621,4.856,5.524,5.059,5.398,5.24C4.998,5.815,4.34,6.159,3.64,6.159c-0.698,0-1.354-0.342-1.759-0.92
		c-0.125-0.18-0.223-0.384-0.292-0.615c-0.063-0.213-0.093-0.413-0.093-0.61v-1.29C0.645,2.915,0,3.666,0,4.573V18.09
		C0,19.141,0.859,20,1.909,20h13.519c1.049,0,1.907-0.858,1.907-1.909V4.573C17.335,3.666,16.691,2.915,15.839,2.724 M15.802,17.483
		H1.621V9.479h14.181V17.483z"/>
	<path fill-rule="evenodd" clip-rule="evenodd" fill="#054163" d="M2.866,4.554C3.037,4.798,3.32,4.959,3.64,4.959
		c0.321,0,0.604-0.161,0.773-0.405C4.47,4.473,4.511,4.381,4.54,4.285c0.026-0.087,0.044-0.176,0.044-0.271v-1.35v-1.72
		C4.584,0.422,4.162,0,3.64,0S2.696,0.422,2.696,0.944v1.72v1.35c0,0.095,0.019,0.184,0.044,0.271
		C2.769,4.382,2.809,4.473,2.866,4.554"/>
	<path fill-rule="evenodd" clip-rule="evenodd" fill="#054163" d="M12.922,4.554c0.171,0.244,0.454,0.405,0.774,0.405
		s0.604-0.161,0.772-0.405c0.058-0.081,0.098-0.173,0.127-0.269c0.026-0.087,0.044-0.176,0.044-0.271v-1.35v-1.72
		C14.64,0.422,14.217,0,13.697,0c-0.522,0-0.945,0.422-0.945,0.944v1.72v1.35c0,0.095,0.02,0.184,0.045,0.271
		C12.826,4.382,12.865,4.473,12.922,4.554"/>
</g>
</svg>
