<svg width="14px" height="20px" viewBox="0 0 14 20" version="1.1" xmlns="http://www.w3.org/2000/svg" xmlns:xlink="http://www.w3.org/1999/xlink">
    <path d="M7.0209714,3.46290036 C5.1241876,3.45445157 3.5979893,4.89356225 3.577523,6.71568478 C3.5599805,8.5244301 5.0774076,10.030427 6.944223,10.0550693 C8.8446615,10.0797116 10.4088686,8.5948366 10.4176398,6.760745 C10.4256802,4.94495906 8.908984,3.47064509 7.0209714,3.46290036 M7.0122002,20 C6.1657741,18.8558929 5.366128,17.8300689 4.6213023,16.7669294 C2.8984817,14.2928419 1.2962658,11.7546844 0.3497013,8.8877281 C-1.106327,4.47464305 2.1558488,0.07775156 6.955187,-0.00100838 C11.5951808,0.07643887 15.0327817,4.32045262 13.7163626,8.6427131 C12.9174475,11.2745114 11.5125848,13.6190508 9.9717677,15.8896633 C9.0485932,17.2513268 8.0494011,18.5644096 7.0122002,20" fill="#4A4A4A"></path>
</svg>
