<?xml version="1.0" encoding="utf-8"?>
<!-- Generator: Adobe Illustrator 16.0.0, SVG Export Plug-In . SVG Version: 6.00 Build 0)  -->
<!DOCTYPE svg PUBLIC "-//W3C//DTD SVG 1.1//EN" "http://www.w3.org/Graphics/SVG/1.1/DTD/svg11.dtd">
<svg version="1.1" id="Layer_1" xmlns="http://www.w3.org/2000/svg" xmlns:xlink="http://www.w3.org/1999/xlink" x="0px" y="0px"
	 width="16.591px" height="18.001px" viewBox="0 0 16.591 18.001" enable-background="new 0 0 16.591 18.001" xml:space="preserve">
<g>
	<path fill-rule="evenodd" clip-rule="evenodd" fill="#054163" d="M11.875,10.256c1.118-1.268,1.586-2.786,1.587-4.46
		c0.014-1.048-0.197-2.049-0.691-2.973c-0.896-1.67-2.242-2.706-4.18-2.813C6.562-0.104,5.044,0.805,4.009,2.512
		C2.622,4.8,2.91,8.114,4.633,10.159C6.635,12.536,9.815,12.585,11.875,10.256"/>
	<path fill-rule="evenodd" clip-rule="evenodd" fill="#054163" d="M16.551,13.586c-0.043-0.826-0.728-1.482-1.552-1.561
		c-0.928-0.091-1.87-0.056-2.808-0.053c-0.128,0-0.264,0.108-0.383,0.188c-2.289,1.568-4.71,1.568-6.994,0.009
		c-0.155-0.107-0.361-0.196-0.544-0.201c-0.754-0.022-1.509-0.03-2.262-0.002c-1.084,0.039-1.901,0.679-1.964,1.714
		c-0.086,1.424-0.022,2.856-0.022,4.321h16.55C16.573,16.514,16.625,15.047,16.551,13.586"/>
</g>
</svg>
