<?xml version="1.0" encoding="utf-8"?>
<!-- Generator: Adobe Illustrator 16.0.0, SVG Export Plug-In . SVG Version: 6.00 Build 0)  -->
<!DOCTYPE svg PUBLIC "-//W3C//DTD SVG 1.1//EN" "http://www.w3.org/Graphics/SVG/1.1/DTD/svg11.dtd">
<svg version="1.1" id="Layer_1" xmlns="http://www.w3.org/2000/svg" xmlns:xlink="http://www.w3.org/1999/xlink" x="0px" y="0px"
	 width="20px" height="20px" viewBox="0 0 20 20" enable-background="new 0 0 20 20" xml:space="preserve">
<g>
	<path fill="#054163" d="M10.247,4.682C8.766,4.593,7.56,5.255,6.758,6.578C5.732,8.27,5.93,10.695,7.216,12.223
		c0.738,0.876,1.72,1.366,2.765,1.378c0.015,0.001,0.027,0.001,0.041,0.001c1.026,0,2-0.463,2.745-1.306h0.001
		c0.779-0.885,1.174-1.989,1.175-3.278c0.011-0.806-0.164-1.55-0.517-2.21C12.711,5.474,11.642,4.759,10.247,4.682 M12.018,11.634
		c-0.56,0.633-1.267,0.971-2.024,0.968c-0.75-0.01-1.465-0.373-2.013-1.023c-1.006-1.193-1.168-3.162-0.368-4.481
		c0.579-0.955,1.36-1.422,2.383-1.422c0.063,0,0.129,0.002,0.195,0.005c1.037,0.058,1.808,0.581,2.354,1.6
		c0.271,0.511,0.407,1.09,0.398,1.731C12.941,10.07,12.64,10.928,12.018,11.634"/>
	<path fill="#054163" d="M10,0C4.477,0,0,4.477,0,10c0,3.943,2.289,7.345,5.606,8.973c0.938,0.498,1.908,0.796,3.015,0.921
		C9.072,19.956,9.53,20,10,20c5.522,0,10-4.478,10-10C20,4.477,15.522,0,10,0 M14.627,17.471C13.28,18.308,11.697,18.8,10,18.8
		c-1.68,0-3.243-0.481-4.58-1.3v-2.015c0-0.499,0.486-0.76,0.968-0.76h0.605c0.063,0.028,0.154,0.077,0.268,0.135
		c0.594,0.306,1.698,0.872,2.819,0.872c1.165,0,2.226-0.615,2.735-0.911c0.068-0.039,0.123-0.071,0.167-0.096h0.982
		c0.328,0,0.662,0.349,0.662,0.69V17.471z M15.627,16.758v-1.342c0-0.9-0.777-1.69-1.662-1.69H12.89
		c-0.177,0-0.302,0.072-0.575,0.231c-0.468,0.271-1.339,0.775-2.234,0.775c-0.88,0-1.845-0.495-2.362-0.761
		c-0.328-0.169-0.479-0.246-0.655-0.246H6.388c-1.121,0-1.968,0.756-1.968,1.76v1.313C2.456,15.184,1.2,12.735,1.2,10
		c0-4.854,3.947-8.801,8.8-8.801c4.852,0,8.8,3.947,8.8,8.801C18.8,12.713,17.563,15.142,15.627,16.758"/>
</g>
</svg>
