<svg width="35px" height="9px" viewBox="0 0 35 9" version="1.1" xmlns="http://www.w3.org/2000/svg" xmlns:xlink="http://www.w3.org/1999/xlink">
    <g stroke="none" stroke-width="1" fill="none" fill-rule="evenodd">
        <path d="M0.370668971,7.98 L1.66066897,7.98 L1.66066897,3.6 C1.66066897,3.375 1.69066897,3.15 1.76566897,2.955 C1.97566897,2.295 2.57566897,1.635 3.40066897,1.635 C4.40566897,1.635 4.91566897,2.475 4.91566897,3.63 L4.91566897,7.98 L6.20566897,7.98 L6.20566897,3.495 C6.20566897,3.255 6.25066897,3.015 6.31066897,2.835 C6.53566897,2.19 7.12066897,1.635 7.87066897,1.635 C8.93566897,1.635 9.44566897,2.475 9.44566897,3.87 L9.44566897,7.98 L10.735669,7.98 L10.735669,3.705 C10.735669,1.185 9.31066897,0.555 8.35066897,0.555 C7.66066897,0.555 7.18066897,0.735 6.74566897,1.065 C6.44566897,1.29 6.16066897,1.605 5.93566897,2.01 L5.90566897,2.01 C5.59066897,1.155 4.84066897,0.555 3.85066897,0.555 C2.65066897,0.555 1.97566897,1.2 1.57066897,1.89 L1.52566897,1.89 L1.46566897,0.72 L0.310668971,0.72 C0.355668971,1.32 0.370668971,1.935 0.370668971,2.685 L0.370668971,7.98 Z M18.715669,4.59 C18.730669,4.455 18.760669,4.245 18.760669,3.975 C18.760669,2.64 18.130669,0.555 15.760669,0.555 C13.645669,0.555 12.355669,2.28 12.355669,4.47 C12.355669,6.66 13.690669,8.13 15.925669,8.13 C17.080669,8.13 17.875669,7.89 18.340669,7.68 L18.115669,6.735 C17.620669,6.945 17.050669,7.11 16.105669,7.11 C14.785669,7.11 13.645669,6.375 13.615669,4.59 L18.715669,4.59 Z M13.630669,3.645 C13.735669,2.73 14.320669,1.5 15.655669,1.5 C17.140669,1.5 17.500669,2.805 17.485669,3.645 L13.630669,3.645 Z M20.395669,7.98 L21.715669,7.98 L21.715669,3.615 C21.715669,3.39 21.745669,3.165 21.805669,3 C22.030669,2.265 22.705669,1.65 23.575669,1.65 C24.820669,1.65 25.255669,2.625 25.255669,3.795 L25.255669,7.98 L26.575669,7.98 L26.575669,3.645 C26.575669,1.155 25.015669,0.555 24.010669,0.555 C22.810669,0.555 21.970669,1.23 21.610669,1.92 L21.580669,1.92 L21.505669,0.72 L20.335669,0.72 C20.380669,1.32 20.395669,1.935 20.395669,2.685 L20.395669,7.98 Z M34.795669,0.72 L33.475669,0.72 L33.475669,5.175 C33.475669,5.415 33.430669,5.655 33.355669,5.85 C33.115669,6.435 32.500669,7.05 31.615669,7.05 C30.415669,7.05 29.995669,6.12 29.995669,4.74 L29.995669,0.72 L28.675669,0.72 L28.675669,4.965 C28.675669,7.515 30.040669,8.145 31.180669,8.145 C32.470669,8.145 33.235669,7.38 33.580669,6.795 L33.610669,6.795 L33.685669,7.98 L34.855669,7.98 C34.810669,7.41 34.795669,6.75 34.795669,6 L34.795669,0.72 Z" fill="#0087D2"></path>
    </g>
</svg>
