<?xml version="1.0" encoding="utf-8"?>
<!-- Generator: Adobe Illustrator 16.0.0, SVG Export Plug-In . SVG Version: 6.00 Build 0)  -->
<!DOCTYPE svg PUBLIC "-//W3C//DTD SVG 1.1//EN" "http://www.w3.org/Graphics/SVG/1.1/DTD/svg11.dtd">
<svg version="1.1" id="Layer_1" xmlns="http://www.w3.org/2000/svg" xmlns:xlink="http://www.w3.org/1999/xlink" x="0px" y="0px"
	 width="23.25px" height="23.084px" viewBox="0 0 23.25 23.084" enable-background="new 0 0 23.25 23.084" xml:space="preserve">
<g transform="translate(-960.000000, -22.000000)">
	<g>
		<path d="M961.166,23l21,21 M961.166,44l21-21"/>
		<path fill="#0087D2" d="M982.166,45c-0.256,0-0.512-0.098-0.707-0.293l-9.793-9.793l-9.793,9.793
			c-0.391,0.391-1.023,0.391-1.414,0s-0.391-1.023,0-1.414l9.793-9.793l-9.793-9.793c-0.391-0.391-0.391-1.023,0-1.414
			s1.023-0.391,1.414,0l9.793,9.793l9.793-9.793c0.391-0.391,1.023-0.391,1.414,0s0.391,1.023,0,1.414L973.08,33.5l9.793,9.793
			c0.391,0.391,0.391,1.023,0,1.414C982.678,44.902,982.422,45,982.166,45z"/>
	</g>
</g>
</svg>
