<?xml version="1.0" encoding="UTF-8" standalone="no"?>
<svg width="26px" height="22px" viewBox="0 0 26 22" version="1.1" xmlns="http://www.w3.org/2000/svg" xmlns:xlink="http://www.w3.org/1999/xlink" xmlns:sketch="http://www.bohemiancoding.com/sketch/ns">
    <!-- Generator: Sketch 3.3.2 (12043) - http://www.bohemiancoding.com/sketch -->
    <title>Slice 1</title>
    <desc>Created with Sketch.</desc>
    <defs></defs>
    <g id="Page-1" stroke="none" stroke-width="1" fill="none" fill-rule="evenodd" sketch:type="MSPage">
        <g id="logout" sketch:type="MSLayerGroup" fill="#6D6C6C">
            <path d="M25.4818273,10.5766448 C25.4818273,10.6064004 25.4818273,10.6384897 25.4783004,10.6647446 C25.4641928,10.8342346 25.4162858,10.9964316 25.3378123,11.139375 C25.3342854,11.1495853 25.3272317,11.160379 25.316651,11.1688389 C25.2543425,11.2575221 25.1691091,11.3558322 25.0536033,11.4812723 L25.0430226,11.4917743 C24.9204629,11.6204233 24.7605769,11.7791197 24.5545474,11.9821577 L21.4614592,15.0522319 C21.228684,15.2850254 20.9230196,15.4014222 20.6158857,15.4014222 C20.3119848,15.4014222 20.004557,15.2870674 19.7735453,15.0522319 C19.3062315,14.5921875 19.3062315,13.8404219 19.7735453,13.3803775 C19.7735453,13.3803775 20.5588676,12.5973977 21.404441,11.7616164 L10.5989118,11.7616164 C9.93997,11.7616164 9.40564518,11.2309755 9.40564518,10.5766448 C9.40564518,9.92056376 9.93997,9.39167317 10.5989118,9.39167317 L21.4062045,9.39167317 L19.7753087,7.77291208 C19.3079949,7.30936706 19.3079949,6.56110211 19.7753087,6.09755708 C20.2426225,5.63401205 20.9959088,5.63401205 21.4632226,6.09755708 L25.1300194,9.73736283 C25.3557407,9.96140473 25.4818273,10.2630445 25.4818273,10.5766448" id="Fill-1" sketch:type="MSShapeGroup"></path>
            <path d="M17.6150846,16.5861021 C18.0538893,17.0729848 18.0112727,17.8227083 17.5189767,18.2579564 C15.616216,19.9511064 13.1556179,20.8819888 10.5974423,20.8819888 C4.86946845,20.8819888 0.211319883,16.2567488 0.211319883,10.5766448 C0.211319883,4.89158153 4.8712319,0.267800086 10.5974423,0.267800086 C13.1556179,0.267800086 15.6144526,1.19868252 17.5189767,2.8915408 C18.0092153,3.32912264 18.0538893,4.07651242 17.6150846,4.56368687 C17.1745165,5.0505696 16.4212301,5.09403606 15.9306976,4.65878799 C14.4632148,3.35537755 12.5710348,2.63774333 10.5989118,2.63774333 C6.18764602,2.63774333 2.60108618,6.19995123 2.60108618,10.5766448 C2.60108618,14.9553804 6.18940947,18.5120456 10.5989118,18.5120456 C12.5710348,18.5120456 14.4632148,17.7941197 15.9306976,16.4947933 C16.4212301,16.0592535 17.1745165,16.0995111 17.6150846,16.5861021" id="Fill-2" sketch:type="MSShapeGroup"></path>
        </g>
    </g>
</svg>