<svg width="19px" height="20px" viewBox="0 0 19 20" version="1.1" xmlns="http://www.w3.org/2000/svg" xmlns:xlink="http://www.w3.org/1999/xlink">
    <g fill="#004063">
        <path d="M15.1335,6.56214286 C15.1320385,8.365 14.6168462,10 13.3847692,11.3657143 C11.1157308,13.8742857 7.61242308,13.8214286 5.40696154,11.2614286 C3.50769231,9.05857143 3.19053846,5.49 4.71930769,3.02642857 C5.85930769,1.18785714 7.53130769,0.209285714 9.76673077,0.331428571 C11.9005769,0.446428571 13.3847692,1.56285714 14.3705769,3.36142857 C14.915,4.35642857 15.1473846,5.43428571 15.1335,6.56214286"></path>
        <path d="M18.5615385,19.7057143 L0.327384615,19.7057143 C0.327384615,18.1292857 0.2565,16.5864286 0.3515,15.0528571 C0.420923077,13.9385714 1.3205,13.2492857 2.51457692,13.2071429 C3.34473077,13.1764286 4.17634615,13.185 5.00723077,13.2085714 C5.20892308,13.2142857 5.43546154,13.3107143 5.60646154,13.425 C8.12323077,15.105 10.7905385,15.105 13.3138846,13.4164286 C13.4439615,13.3314286 13.5937692,13.2142857 13.7348077,13.2142857 C14.7666538,13.2114286 15.8058077,13.1735714 16.8281538,13.2714286 C17.7365,13.355 18.4906538,14.0621429 18.5381538,14.9514286 C18.62,16.525 18.5615385,18.1042857 18.5615385,19.7057143"></path>
    </g>
</svg>
