<svg width="18px" height="20px" viewBox="0 0 18 20" version="1.1" xmlns="http://www.w3.org/2000/svg" xmlns:xlink="http://www.w3.org/1999/xlink" xmlns:sketch="http://www.bohemiancoding.com/sketch/ns">
    <g fill="#FFFFFF">
        <path d="M4.38333333,19.6890323 L13.956,19.6890323 C16.048,19.6890323 17.7513333,18.0406452 17.7513333,16.0154839 L17.7513333,6.75225806 C17.7513333,5.18774194 16.7333333,3.85225806 15.306,3.32387097 L15.306,4.37225806 C15.306,4.46129032 15.2986667,4.54645161 15.2893333,4.63225806 C15.2633333,4.85548387 15.2033333,5.0683871 15.1133333,5.26774194 C14.7546667,6.0716129 13.9286667,6.63483871 12.968,6.63483871 C11.862,6.63483871 10.936,5.8883871 10.694,4.88967742 C10.6733333,4.80516129 10.6566667,4.72 10.646,4.63225806 C10.6366667,4.54645161 10.63,4.46 10.63,4.37225806 L10.63,3.07870968 L7.708,3.07870968 L7.708,4.37225806 C7.708,4.46129032 7.70133333,4.54645161 7.692,4.63225806 C7.68066667,4.72 7.66466667,4.80516129 7.644,4.88967742 C7.40133333,5.8883871 6.47533333,6.63483871 5.37,6.63483871 C4.41,6.63483871 3.58333333,6.0716129 3.224,5.26774194 C3.13466667,5.0683871 3.07533333,4.85612903 3.04866667,4.63225806 C3.03866667,4.54645161 3.032,4.46 3.032,4.37225806 L3.032,3.32387097 C1.60466667,3.85225806 0.586666667,5.18774194 0.586666667,6.75225806 L0.586666667,16.0154839 C0.586666667,18.0406452 2.29066667,19.6890323 4.38333333,19.6890323 L4.38333333,19.6890323 Z M2.82666667,9.6083871 L15.5126667,9.6083871 L15.5126667,15.2567742 C15.5126667,16.2283871 14.6953333,17.0187097 13.6926667,17.0187097 L4.646,17.0187097 C3.64266667,17.0187097 2.82666667,16.2283871 2.82666667,15.2567742 L2.82666667,9.6083871 L2.82666667,9.6083871 Z"></path>
        <path d="M4.604,4.88967742 C4.77333333,5.12322581 5.05333333,5.27741935 5.37,5.27741935 C5.688,5.27741935 5.968,5.12322581 6.136,4.88967742 C6.192,4.8116129 6.23266667,4.72387097 6.26133333,4.63225806 C6.28733333,4.54903226 6.30533333,4.46322581 6.30533333,4.37225806 L6.30533333,1.43032258 C6.30533333,0.930967742 5.88666667,0.525806452 5.37,0.525806452 C4.85333333,0.525806452 4.43533333,0.930967742 4.43533333,1.43032258 L4.43533333,4.37225806 C4.43533333,4.46322581 4.454,4.54903226 4.47933333,4.63225806 C4.508,4.72451613 4.548,4.8116129 4.604,4.88967742"></path>
        <path d="M12.202,4.88967742 C12.3713333,5.12322581 12.6506667,5.27741935 12.9686667,5.27741935 C13.286,5.27741935 13.5653333,5.12322581 13.7346667,4.88967742 C13.79,4.8116129 13.8306667,4.72387097 13.8593333,4.63225806 C13.884,4.54903226 13.9033333,4.46322581 13.9033333,4.37225806 L13.9033333,1.43032258 C13.9033333,0.930967742 13.4846667,0.525806452 12.9686667,0.525806452 C12.452,0.525806452 12.0326667,0.930967742 12.0326667,1.43032258 L12.0326667,4.37225806 C12.0326667,4.46322581 12.0506667,4.54903226 12.0766667,4.63225806 C12.1053333,4.72451613 12.146,4.8116129 12.202,4.88967742"></path>
    </g>
</svg>
